<svg width="175" height="40" viewBox="0 0 175 40" fill="none" xmlns="http://www.w3.org/2000/svg">
<path fill-rule="evenodd" clip-rule="evenodd" d="M27.4691 15.0197C27.589 15.1901 27.6921 15.3737 27.7762 15.5686C32.7361 16.9067 36.3875 21.3349 36.3875 26.5771C36.3875 32.8757 31.1166 38 24.6378 38C21.2553 38 18.2027 36.6028 16.0569 34.3715H7.9116C6.15855 34.3715 4.73227 32.9849 4.73227 31.2806C4.73227 30.3018 5.20322 29.4283 5.93592 28.8616C5.20322 28.2949 4.73227 27.4215 4.73227 26.4426C4.73227 25.4638 5.20322 24.5904 5.93592 24.0237C5.20322 23.457 4.73227 22.5835 4.73227 21.6047C4.73227 20.6259 5.20322 19.7525 5.93592 19.1857C5.20322 18.619 4.73227 17.7456 4.73227 16.7668C4.73227 15.0625 6.15855 13.6759 7.9116 13.6759H9.71415C9.36221 13.1785 9.15569 12.5768 9.15569 11.9288C9.15569 11.2809 9.36228 10.6792 9.71415 10.1818H4.17934C2.42628 10.1818 1 8.7952 1 7.0909C1 5.38661 2.42628 4 4.17934 4H21.1128C22.8658 4 24.2921 5.38661 24.2921 7.0909C24.2921 7.73885 24.0855 8.34057 23.7337 8.83794H29.2685C31.0215 8.83794 32.4478 10.2245 32.4478 11.9288C32.4478 13.6331 31.0215 15.0197 29.2685 15.0197H27.4691ZM31.0655 11.9288C31.0655 10.9656 30.2594 10.1818 29.2685 10.1818H12.335C11.3441 10.1818 10.538 10.9656 10.538 11.9288C10.538 12.8921 11.3441 13.6759 12.335 13.6759H24.845H29.2685C30.2594 13.6759 31.0655 12.8921 31.0655 11.9288ZM2.38232 7.0909C2.38232 8.05419 3.18842 8.83794 4.17934 8.83794H21.1128C22.1037 8.83794 22.9098 8.05419 22.9098 7.0909C22.9098 6.12762 22.1037 5.34387 21.1128 5.34387H4.17934C3.18842 5.34387 2.38232 6.12762 2.38232 7.0909ZM24.845 15.0197H7.9116C6.92076 15.0197 6.11459 15.8035 6.11459 16.7668C6.11459 17.7301 6.92076 18.5138 7.9116 18.5138H16.3232C18.4515 16.4395 21.3931 15.1542 24.6378 15.1542C24.9717 15.1542 25.3022 15.1686 25.6292 15.1953C25.39 15.0826 25.1234 15.0197 24.845 15.0197ZM15.1422 19.8577H7.9116C6.92069 19.8577 6.11459 20.6414 6.11459 21.6047C6.11459 22.5681 6.92069 23.3517 7.9116 23.3517H13.3657C13.7509 22.0814 14.3576 20.9027 15.1422 19.8577ZM13.0483 24.6956H7.9116C6.92069 24.6956 6.11459 25.4793 6.11459 26.4426C6.11459 27.406 6.92069 28.1897 7.9116 28.1897H13.0057C12.9287 27.6627 12.888 27.1245 12.888 26.5771C12.888 25.9363 12.9435 25.3079 13.0483 24.6956ZM6.11459 31.2806C6.11459 32.2439 6.92069 33.0276 7.9116 33.0276H14.9462C14.2032 31.9758 13.6366 30.7977 13.2879 29.5335H7.9116C6.92069 29.5335 6.11459 30.3172 6.11459 31.2806ZM14.2704 26.5771C14.2704 32.1347 18.9212 36.6561 24.6378 36.6561C30.3543 36.6561 35.0052 32.1347 35.0052 26.5771C35.0052 21.0195 30.3543 16.4981 24.6378 16.4981C18.9212 16.4981 14.2704 21.0195 14.2704 26.5771ZM22.8747 24.2802C22.8747 25.0967 23.6641 25.7609 24.6344 25.7609C26.4869 25.7609 27.9939 27.1228 27.9939 28.7969C27.9939 30.2219 26.9017 31.42 25.4343 31.7452V32.0811C25.4343 32.5105 25.0761 32.8588 24.6344 32.8588C24.1928 32.8588 23.8346 32.5105 23.8346 32.0811V31.7452C22.3671 31.42 21.275 30.2219 21.275 28.7969C21.275 28.3675 21.6332 28.0193 22.0749 28.0193C22.5166 28.0193 22.8747 28.3675 22.8747 28.7969C22.8747 29.6134 23.6641 30.2776 24.6344 30.2776C25.6048 30.2776 26.3941 29.6134 26.3941 28.7969C26.3941 27.9804 25.6048 27.3161 24.6344 27.3161C22.782 27.3161 21.275 25.9542 21.275 24.2802C21.275 22.8553 22.3671 21.6571 23.8346 21.3319V20.9275C23.8346 20.4981 24.1928 20.1499 24.6344 20.1499C25.0761 20.1499 25.4343 20.4981 25.4343 20.9275V21.3319C26.9017 21.6571 27.9939 22.8553 27.9939 24.2802C27.9939 24.7096 27.6357 25.0579 27.194 25.0579C26.7523 25.0579 26.3941 24.7096 26.3941 24.2802C26.3941 23.4637 25.6048 22.7995 24.6344 22.7995C23.6641 22.7995 22.8747 23.4637 22.8747 24.2802Z" fill="#FF872C"/>
<path d="M27.7762 15.5686L27.5466 15.6677L27.5945 15.7785L27.7111 15.8099L27.7762 15.5686ZM27.4691 15.0197V14.7697H26.9874L27.2647 15.1637L27.4691 15.0197ZM16.0569 34.3715L16.2371 34.1982L16.1634 34.1215H16.0569V34.3715ZM5.93592 28.8616L6.08887 29.0594L6.34455 28.8616L6.08887 28.6639L5.93592 28.8616ZM5.93592 24.0237L6.08887 24.2214L6.34455 24.0237L6.08887 23.8259L5.93592 24.0237ZM5.93592 19.1857L6.08887 19.3835L6.34455 19.1857L6.08887 18.988L5.93592 19.1857ZM9.71415 13.6759V13.9259H10.1973L9.91823 13.5315L9.71415 13.6759ZM9.71415 10.1818L9.91824 10.3262L10.1973 9.93181H9.71415V10.1818ZM23.7337 8.83794L23.5296 8.69355L23.2505 9.08794H23.7337V8.83794ZM16.3232 18.5138V18.7638H16.4248L16.4977 18.6928L16.3232 18.5138ZM25.6292 15.1953L25.6088 15.4444L25.7357 14.9691L25.6292 15.1953ZM15.1422 19.8577L15.3421 20.0078L15.6425 19.6077H15.1422V19.8577ZM13.3657 23.3517V23.6017H13.5511L13.6049 23.4243L13.3657 23.3517ZM13.0483 24.6956L13.2947 24.7378L13.3448 24.4456H13.0483V24.6956ZM13.0057 28.1897V28.4397H13.2948L13.253 28.1536L13.0057 28.1897ZM14.9462 33.0276V33.2776H15.4288L15.1504 32.8834L14.9462 33.0276ZM13.2879 29.5335L13.5289 29.4671L13.4782 29.2835H13.2879V29.5335ZM25.4343 31.7452L25.3802 31.5011L25.1843 31.5445V31.7452H25.4343ZM23.8346 31.7452H24.0846V31.5445L23.8887 31.5011L23.8346 31.7452ZM23.8346 21.3319L23.8887 21.576L24.0846 21.5326V21.3319H23.8346ZM25.4343 21.3319H25.1843V21.5326L25.3802 21.576L25.4343 21.3319ZM28.0057 15.4695C27.9148 15.2589 27.8033 15.0602 27.6735 14.8758L27.2647 15.1637C27.3747 15.3199 27.4693 15.4886 27.5466 15.6677L28.0057 15.4695ZM36.6375 26.5771C36.6375 21.2145 32.9031 16.6928 27.8413 15.3272L27.7111 15.8099C32.5691 17.1206 36.1375 21.4552 36.1375 26.5771H36.6375ZM24.6378 38.25C31.2479 38.25 36.6375 33.0204 36.6375 26.5771H36.1375C36.1375 32.731 30.9852 37.75 24.6378 37.75V38.25ZM15.8767 34.5448C18.0683 36.8237 21.1854 38.25 24.6378 38.25V37.75C21.3252 37.75 18.3371 36.3819 16.2371 34.1982L15.8767 34.5448ZM7.9116 34.6215H16.0569V34.1215H7.9116V34.6215ZM4.48227 31.2806C4.48227 33.1295 6.02717 34.6215 7.9116 34.6215V34.1215C6.28992 34.1215 4.98227 32.8402 4.98227 31.2806H4.48227ZM5.78297 28.6639C4.99332 29.2746 4.48227 30.2192 4.48227 31.2806H4.98227C4.98227 30.3844 5.41313 29.582 6.08887 29.0594L5.78297 28.6639ZM4.48227 26.4426C4.48227 27.5041 4.99332 28.4486 5.78297 29.0594L6.08887 28.6639C5.41313 28.1412 4.98227 27.3388 4.98227 26.4426H4.48227ZM5.78297 23.8259C4.99332 24.4367 4.48227 25.3812 4.48227 26.4426H4.98227C4.98227 25.5465 5.41313 24.7441 6.08887 24.2214L5.78297 23.8259ZM4.48227 21.6047C4.48227 22.6661 4.99332 23.6107 5.78297 24.2214L6.08887 23.8259C5.41313 23.3033 4.98227 22.5009 4.98227 21.6047H4.48227ZM5.78297 18.988C4.99332 19.5987 4.48227 20.5433 4.48227 21.6047H4.98227C4.98227 20.7085 5.41313 19.9062 6.08887 19.3835L5.78297 18.988ZM4.48227 16.7668C4.48227 17.8282 4.99332 18.7727 5.78297 19.3835L6.08887 18.988C5.41313 18.4653 4.98227 17.663 4.98227 16.7668H4.48227ZM7.9116 13.4259C6.02717 13.4259 4.48227 14.9178 4.48227 16.7668H4.98227C4.98227 15.2071 6.28992 13.9259 7.9116 13.9259V13.4259ZM9.71415 13.4259H7.9116V13.9259H9.71415V13.4259ZM8.90569 11.9288C8.90569 12.6309 9.12968 13.2827 9.51008 13.8203L9.91823 13.5315C9.59475 13.0743 9.40569 12.5227 9.40569 11.9288H8.90569ZM9.51006 10.0374C9.12976 10.575 8.90569 11.2267 8.90569 11.9288H9.40569C9.40569 11.335 9.59481 10.7834 9.91824 10.3262L9.51006 10.0374ZM4.17934 10.4318H9.71415V9.93181H4.17934V10.4318ZM0.75 7.0909C0.75 8.93987 2.2949 10.4318 4.17934 10.4318V9.93181C2.55765 9.93181 1.25 8.65053 1.25 7.0909H0.75ZM4.17934 3.75C2.2949 3.75 0.75 5.24193 0.75 7.0909H1.25C1.25 5.53128 2.55765 4.25 4.17934 4.25V3.75ZM21.1128 3.75H4.17934V4.25H21.1128V3.75ZM24.5421 7.0909C24.5421 5.24193 22.9972 3.75 21.1128 3.75V4.25C22.7345 4.25 24.0421 5.53128 24.0421 7.0909H24.5421ZM23.9377 8.98232C24.318 8.44476 24.5421 7.793 24.5421 7.0909H24.0421C24.0421 7.6847 23.853 8.23637 23.5296 8.69355L23.9377 8.98232ZM29.2685 8.58794H23.7337V9.08794H29.2685V8.58794ZM32.6978 11.9288C32.6978 10.0799 31.1529 8.58794 29.2685 8.58794V9.08794C30.8901 9.08794 32.1978 10.3692 32.1978 11.9288H32.6978ZM29.2685 15.2697C31.1529 15.2697 32.6978 13.7778 32.6978 11.9288H32.1978C32.1978 13.4885 30.8901 14.7697 29.2685 14.7697V15.2697ZM27.4691 15.2697H29.2685V14.7697H27.4691V15.2697ZM29.2685 10.4318C30.128 10.4318 30.8155 11.1102 30.8155 11.9288H31.3155C31.3155 10.8209 30.3908 9.93181 29.2685 9.93181V10.4318ZM12.335 10.4318H29.2685V9.93181H12.335V10.4318ZM10.788 11.9288C10.788 11.1102 11.4755 10.4318 12.335 10.4318V9.93181C11.2127 9.93181 10.288 10.8209 10.288 11.9288H10.788ZM12.335 13.4259C11.4755 13.4259 10.788 12.7475 10.788 11.9288H10.288C10.288 13.0368 11.2127 13.9259 12.335 13.9259V13.4259ZM24.845 13.4259H12.335V13.9259H24.845V13.4259ZM29.2685 13.4259H24.845V13.9259H29.2685V13.4259ZM30.8155 11.9288C30.8155 12.7475 30.128 13.4259 29.2685 13.4259V13.9259C30.3908 13.9259 31.3155 13.0368 31.3155 11.9288H30.8155ZM4.17934 8.58794C3.3198 8.58794 2.63232 7.90952 2.63232 7.0909H2.13232C2.13232 8.19886 3.05704 9.08794 4.17934 9.08794V8.58794ZM21.1128 8.58794H4.17934V9.08794H21.1128V8.58794ZM22.6598 7.0909C22.6598 7.90952 21.9723 8.58794 21.1128 8.58794V9.08794C22.2351 9.08794 23.1598 8.19886 23.1598 7.0909H22.6598ZM21.1128 5.59387C21.9723 5.59387 22.6598 6.27228 22.6598 7.0909H23.1598C23.1598 5.98295 22.2351 5.09387 21.1128 5.09387V5.59387ZM4.17934 5.59387H21.1128V5.09387H4.17934V5.59387ZM2.63232 7.0909C2.63232 6.27228 3.3198 5.59387 4.17934 5.59387V5.09387C3.05704 5.09387 2.13232 5.98295 2.13232 7.0909H2.63232ZM7.9116 15.2697H24.845V14.7697H7.9116V15.2697ZM6.36459 16.7668C6.36459 15.9482 7.05213 15.2697 7.9116 15.2697V14.7697C6.78938 14.7697 5.86459 15.6588 5.86459 16.7668H6.36459ZM7.9116 18.2638C7.05213 18.2638 6.36459 17.5854 6.36459 16.7668H5.86459C5.86459 17.8747 6.78938 18.7638 7.9116 18.7638V18.2638ZM16.3232 18.2638H7.9116V18.7638H16.3232V18.2638ZM24.6378 14.9042C21.3261 14.9042 18.3224 16.2163 16.1487 18.3348L16.4977 18.6928C18.5807 16.6628 21.4601 15.4042 24.6378 15.4042V14.9042ZM25.6495 14.9461C25.3162 14.9189 24.9789 14.9042 24.6378 14.9042V15.4042C24.9645 15.4042 25.2883 15.4183 25.6088 15.4444L25.6495 14.9461ZM24.845 15.2697C25.0856 15.2697 25.3159 15.3241 25.5226 15.4214L25.7357 14.9691C25.4642 14.8412 25.1613 14.7697 24.845 14.7697V15.2697ZM7.9116 20.1077H15.1422V19.6077H7.9116V20.1077ZM6.36459 21.6047C6.36459 20.7861 7.05207 20.1077 7.9116 20.1077V19.6077C6.78931 19.6077 5.86459 20.4968 5.86459 21.6047H6.36459ZM7.9116 23.1017C7.05206 23.1017 6.36459 22.4234 6.36459 21.6047H5.86459C5.86459 22.7127 6.78931 23.6017 7.9116 23.6017V23.1017ZM13.3657 23.1017H7.9116V23.6017H13.3657V23.1017ZM14.9423 19.7076C14.1406 20.7753 13.5204 21.9802 13.1265 23.2792L13.6049 23.4243C13.9815 22.1827 14.5745 21.0301 15.3421 20.0078L14.9423 19.7076ZM7.9116 24.9456H13.0483V24.4456H7.9116V24.9456ZM6.36459 26.4426C6.36459 25.624 7.05206 24.9456 7.9116 24.9456V24.4456C6.78931 24.4456 5.86459 25.3346 5.86459 26.4426H6.36459ZM7.9116 27.9397C7.05206 27.9397 6.36459 27.2613 6.36459 26.4426H5.86459C5.86459 27.5507 6.78931 28.4397 7.9116 28.4397V27.9397ZM13.0057 27.9397H7.9116V28.4397H13.0057V27.9397ZM12.638 26.5771C12.638 27.1369 12.6797 27.6872 12.7583 28.2258L13.253 28.1536C13.1778 27.6382 13.138 27.112 13.138 26.5771H12.638ZM12.8019 24.6534C12.6947 25.2794 12.638 25.9218 12.638 26.5771H13.138C13.138 25.9507 13.1922 25.3365 13.2947 24.7378L12.8019 24.6534ZM7.9116 32.7776C7.05206 32.7776 6.36459 32.0993 6.36459 31.2806H5.86459C5.86459 32.3886 6.78931 33.2776 7.9116 33.2776V32.7776ZM14.9462 32.7776H7.9116V33.2776H14.9462V32.7776ZM13.0469 29.6C13.4035 30.8927 13.9828 32.0971 14.742 33.1718L15.1504 32.8834C14.4236 31.8545 13.8697 30.7026 13.5289 29.4671L13.0469 29.6ZM7.9116 29.7835H13.2879V29.2835H7.9116V29.7835ZM6.36459 31.2806C6.36459 30.4619 7.05206 29.7835 7.9116 29.7835V29.2835C6.78931 29.2835 5.86459 30.1726 5.86459 31.2806H6.36459ZM24.6378 36.4061C19.0525 36.4061 14.5204 31.99 14.5204 26.5771H14.0204C14.0204 32.2794 18.7898 36.9061 24.6378 36.9061V36.4061ZM34.7552 26.5771C34.7552 31.99 30.223 36.4061 24.6378 36.4061V36.9061C30.4857 36.9061 35.2552 32.2794 35.2552 26.5771H34.7552ZM24.6378 16.7481C30.223 16.7481 34.7552 21.1642 34.7552 26.5771H35.2552C35.2552 20.8748 30.4857 16.2481 24.6378 16.2481V16.7481ZM14.5204 26.5771C14.5204 21.1642 19.0525 16.7481 24.6378 16.7481V16.2481C18.7898 16.2481 14.0204 20.8748 14.0204 26.5771H14.5204ZM24.6344 25.5109C23.76 25.5109 23.1247 24.9199 23.1247 24.2802H22.6247C22.6247 25.2734 23.5682 26.0109 24.6344 26.0109V25.5109ZM28.2439 28.7969C28.2439 26.9615 26.6005 25.5109 24.6344 25.5109V26.0109C26.3732 26.0109 27.7439 27.2841 27.7439 28.7969H28.2439ZM25.4884 31.9893C27.0507 31.6431 28.2439 30.358 28.2439 28.7969H27.7439C27.7439 30.0857 26.7528 31.197 25.3802 31.5011L25.4884 31.9893ZM25.6843 32.0811V31.7452H25.1843V32.0811H25.6843ZM24.6344 33.1088C25.2075 33.1088 25.6843 32.6552 25.6843 32.0811H25.1843C25.1843 32.3659 24.9448 32.6088 24.6344 32.6088V33.1088ZM23.5846 32.0811C23.5846 32.6552 24.0614 33.1088 24.6344 33.1088V32.6088C24.3241 32.6088 24.0846 32.3659 24.0846 32.0811H23.5846ZM23.5846 31.7452V32.0811H24.0846V31.7452H23.5846ZM21.025 28.7969C21.025 30.358 22.2182 31.6431 23.7805 31.9893L23.8887 31.5011C22.5161 31.197 21.525 30.0857 21.525 28.7969H21.025ZM22.0749 27.7693C21.5018 27.7693 21.025 28.2228 21.025 28.7969H21.525C21.525 28.5121 21.7646 28.2693 22.0749 28.2693V27.7693ZM23.1247 28.7969C23.1247 28.2228 22.6479 27.7693 22.0749 27.7693V28.2693C22.3852 28.2693 22.6247 28.5121 22.6247 28.7969H23.1247ZM24.6344 30.0276C23.76 30.0276 23.1247 29.4366 23.1247 28.7969H22.6247C22.6247 29.7901 23.5682 30.5276 24.6344 30.5276V30.0276ZM26.1441 28.7969C26.1441 29.4366 25.5089 30.0276 24.6344 30.0276V30.5276C25.7007 30.5276 26.6441 29.7901 26.6441 28.7969H26.1441ZM24.6344 27.5661C25.5089 27.5661 26.1441 28.1571 26.1441 28.7969H26.6441C26.6441 27.8036 25.7007 27.0661 24.6344 27.0661V27.5661ZM21.025 24.2802C21.025 26.1155 22.6684 27.5661 24.6344 27.5661V27.0661C22.8957 27.0661 21.525 25.7929 21.525 24.2802H21.025ZM23.7805 21.0878C22.2182 21.4341 21.025 22.7191 21.025 24.2802H21.525C21.525 22.9915 22.5161 21.8802 23.8887 21.576L23.7805 21.0878ZM23.5846 20.9275V21.3319H24.0846V20.9275H23.5846ZM24.6344 19.8999C24.0614 19.8999 23.5846 20.3534 23.5846 20.9275H24.0846C24.0846 20.6427 24.3241 20.3999 24.6344 20.3999V19.8999ZM25.6843 20.9275C25.6843 20.3534 25.2075 19.8999 24.6344 19.8999V20.3999C24.9448 20.3999 25.1843 20.6427 25.1843 20.9275H25.6843ZM25.6843 21.3319V20.9275H25.1843V21.3319H25.6843ZM28.2439 24.2802C28.2439 22.7191 27.0507 21.4341 25.4884 21.0878L25.3802 21.576C26.7528 21.8802 27.7439 22.9915 27.7439 24.2802H28.2439ZM27.194 25.3079C27.7671 25.3079 28.2439 24.8543 28.2439 24.2802H27.7439C27.7439 24.565 27.5043 24.8079 27.194 24.8079V25.3079ZM26.1441 24.2802C26.1441 24.8543 26.6209 25.3079 27.194 25.3079V24.8079C26.8837 24.8079 26.6441 24.565 26.6441 24.2802H26.1441ZM24.6344 23.0495C25.5089 23.0495 26.1441 23.6405 26.1441 24.2802H26.6441C26.6441 23.287 25.7007 22.5495 24.6344 22.5495V23.0495ZM23.1247 24.2802C23.1247 23.6405 23.76 23.0495 24.6344 23.0495V22.5495C23.5682 22.5495 22.6247 23.287 22.6247 24.2802H23.1247Z" fill="#FF872C"/>
<path d="M64.248 15.956C65.016 15.956 65.7 16.118 66.3 16.442C66.9 16.754 67.374 17.228 67.722 17.864C68.07 18.5 68.244 19.274 68.244 20.186V26H66.624V20.42C66.624 19.436 66.378 18.686 65.886 18.17C65.406 17.642 64.752 17.378 63.924 17.378C63.072 17.378 62.394 17.654 61.89 18.206C61.386 18.746 61.134 19.532 61.134 20.564V26H59.514V20.42C59.514 19.436 59.268 18.686 58.776 18.17C58.296 17.642 57.642 17.378 56.814 17.378C55.962 17.378 55.284 17.654 54.78 18.206C54.276 18.746 54.024 19.532 54.024 20.564V26H52.386V16.136H54.024V17.558C54.348 17.042 54.78 16.646 55.32 16.37C55.872 16.094 56.478 15.956 57.138 15.956C57.966 15.956 58.698 16.142 59.334 16.514C59.97 16.886 60.444 17.432 60.756 18.152C61.032 17.456 61.488 16.916 62.124 16.532C62.76 16.148 63.468 15.956 64.248 15.956ZM79.4269 16.136L73.4869 30.644H71.7949L73.7389 25.892L69.7609 16.136H71.5789L74.6749 24.128L77.7349 16.136H79.4269Z" fill="#585666"/>
<path d="M90.164 12.405V14.358H83.969V18.663H88.799V20.616H83.969V27H81.575V12.405H90.164ZM93.6006 13.896C93.1666 13.896 92.8026 13.749 92.5086 13.455C92.2146 13.161 92.0676 12.797 92.0676 12.363C92.0676 11.929 92.2146 11.565 92.5086 11.271C92.8026 10.977 93.1666 10.83 93.6006 10.83C94.0206 10.83 94.3776 10.977 94.6716 11.271C94.9656 11.565 95.1126 11.929 95.1126 12.363C95.1126 12.797 94.9656 13.161 94.6716 13.455C94.3776 13.749 94.0206 13.896 93.6006 13.896ZM94.7766 15.429V27H92.3826V15.429H94.7766ZM103.758 15.24C104.668 15.24 105.48 15.429 106.194 15.807C106.922 16.185 107.489 16.745 107.895 17.487C108.301 18.229 108.504 19.125 108.504 20.175V27H106.131V20.532C106.131 19.496 105.872 18.705 105.354 18.159C104.836 17.599 104.129 17.319 103.233 17.319C102.337 17.319 101.623 17.599 101.091 18.159C100.573 18.705 100.314 19.496 100.314 20.532V27H97.9197V15.429H100.314V16.752C100.706 16.276 101.203 15.905 101.805 15.639C102.421 15.373 103.072 15.24 103.758 15.24ZM110.759 21.162C110.759 20 110.997 18.971 111.473 18.075C111.963 17.179 112.621 16.486 113.447 15.996C114.287 15.492 115.211 15.24 116.219 15.24C117.129 15.24 117.92 15.422 118.592 15.786C119.278 16.136 119.824 16.577 120.23 17.109V15.429H122.645V27H120.23V25.278C119.824 25.824 119.271 26.279 118.571 26.643C117.871 27.007 117.073 27.189 116.177 27.189C115.183 27.189 114.273 26.937 113.447 26.433C112.621 25.915 111.963 25.201 111.473 24.291C110.997 23.367 110.759 22.324 110.759 21.162ZM120.23 21.204C120.23 20.406 120.062 19.713 119.726 19.125C119.404 18.537 118.977 18.089 118.445 17.781C117.913 17.473 117.339 17.319 116.723 17.319C116.107 17.319 115.533 17.473 115.001 17.781C114.469 18.075 114.035 18.516 113.699 19.104C113.377 19.678 113.216 20.364 113.216 21.162C113.216 21.96 113.377 22.66 113.699 23.262C114.035 23.864 114.469 24.326 115.001 24.648C115.547 24.956 116.121 25.11 116.723 25.11C117.339 25.11 117.913 24.956 118.445 24.648C118.977 24.34 119.404 23.892 119.726 23.304C120.062 22.702 120.23 22.002 120.23 21.204ZM131.628 15.24C132.538 15.24 133.35 15.429 134.064 15.807C134.792 16.185 135.359 16.745 135.765 17.487C136.171 18.229 136.374 19.125 136.374 20.175V27H134.001V20.532C134.001 19.496 133.742 18.705 133.224 18.159C132.706 17.599 131.999 17.319 131.103 17.319C130.207 17.319 129.493 17.599 128.961 18.159C128.443 18.705 128.184 19.496 128.184 20.532V27H125.79V15.429H128.184V16.752C128.576 16.276 129.073 15.905 129.675 15.639C130.291 15.373 130.942 15.24 131.628 15.24ZM138.63 21.204C138.63 20.014 138.868 18.971 139.344 18.075C139.834 17.165 140.506 16.465 141.36 15.975C142.214 15.485 143.194 15.24 144.3 15.24C145.7 15.24 146.855 15.576 147.765 16.248C148.689 16.906 149.312 17.851 149.634 19.083H147.051C146.841 18.509 146.505 18.061 146.043 17.739C145.581 17.417 145 17.256 144.3 17.256C143.32 17.256 142.536 17.606 141.948 18.306C141.374 18.992 141.087 19.958 141.087 21.204C141.087 22.45 141.374 23.423 141.948 24.123C142.536 24.823 143.32 25.173 144.3 25.173C145.686 25.173 146.603 24.564 147.051 23.346H149.634C149.298 24.522 148.668 25.46 147.744 26.16C146.82 26.846 145.672 27.189 144.3 27.189C143.194 27.189 142.214 26.944 141.36 26.454C140.506 25.95 139.834 25.25 139.344 24.354C138.868 23.444 138.63 22.394 138.63 21.204ZM162.624 20.931C162.624 21.365 162.596 21.757 162.54 22.107H153.699C153.769 23.031 154.112 23.773 154.728 24.333C155.344 24.893 156.1 25.173 156.996 25.173C158.284 25.173 159.194 24.634 159.726 23.556H162.309C161.959 24.62 161.322 25.495 160.398 26.181C159.488 26.853 158.354 27.189 156.996 27.189C155.89 27.189 154.896 26.944 154.014 26.454C153.146 25.95 152.46 25.25 151.956 24.354C151.466 23.444 151.221 22.394 151.221 21.204C151.221 20.014 151.459 18.971 151.935 18.075C152.425 17.165 153.104 16.465 153.972 15.975C154.854 15.485 155.862 15.24 156.996 15.24C158.088 15.24 159.061 15.478 159.915 15.954C160.769 16.43 161.434 17.102 161.91 17.97C162.386 18.824 162.624 19.811 162.624 20.931ZM160.125 20.175C160.111 19.293 159.796 18.586 159.18 18.054C158.564 17.522 157.801 17.256 156.891 17.256C156.065 17.256 155.358 17.522 154.77 18.054C154.182 18.572 153.832 19.279 153.72 20.175H160.125ZM169.18 27.189C168.27 27.189 167.451 27.028 166.723 26.706C166.009 26.37 165.442 25.922 165.022 25.362C164.602 24.788 164.378 24.151 164.35 23.451H166.828C166.87 23.941 167.101 24.354 167.521 24.69C167.955 25.012 168.494 25.173 169.138 25.173C169.81 25.173 170.328 25.047 170.692 24.795C171.07 24.529 171.259 24.193 171.259 23.787C171.259 23.353 171.049 23.031 170.629 22.821C170.223 22.611 169.572 22.38 168.676 22.128C167.808 21.89 167.101 21.659 166.555 21.435C166.009 21.211 165.533 20.868 165.127 20.406C164.735 19.944 164.539 19.335 164.539 18.579C164.539 17.963 164.721 17.403 165.085 16.899C165.449 16.381 165.967 15.975 166.639 15.681C167.325 15.387 168.109 15.24 168.991 15.24C170.307 15.24 171.364 15.576 172.162 16.248C172.974 16.906 173.408 17.809 173.464 18.957H171.07C171.028 18.439 170.818 18.026 170.44 17.718C170.062 17.41 169.551 17.256 168.907 17.256C168.277 17.256 167.794 17.375 167.458 17.613C167.122 17.851 166.954 18.166 166.954 18.558C166.954 18.866 167.066 19.125 167.29 19.335C167.514 19.545 167.787 19.713 168.109 19.839C168.431 19.951 168.907 20.098 169.537 20.28C170.377 20.504 171.063 20.735 171.595 20.973C172.141 21.197 172.61 21.533 173.002 21.981C173.394 22.429 173.597 23.024 173.611 23.766C173.611 24.424 173.429 25.012 173.065 25.53C172.701 26.048 172.183 26.454 171.511 26.748C170.853 27.042 170.076 27.189 169.18 27.189Z" fill="#585666"/>
</svg>
